<mxfile host="app.diagrams.net" modified="2022-02-22T00:40:01.173Z" agent="5.0 (Windows NT 10.0; Win64; x64) AppleWebKit/537.36 (KHTML, like Gecko) Chrome/98.0.4758.102 Safari/537.36" etag="obuHS9UGJ5XxQPv9J5Ux" version="15.8.6" type="github">
  <diagram id="B4lS6D4BCv2AXGVGuwU-" name="Page-1">
    <mxGraphModel dx="981" dy="486" grid="1" gridSize="10" guides="1" tooltips="1" connect="1" arrows="1" fold="1" page="1" pageScale="1" pageWidth="850" pageHeight="1100" math="0" shadow="0">
      <root>
        <mxCell id="0" />
        <mxCell id="1" parent="0" />
        <mxCell id="bhBdgrQU760FclHtjU-p-19" style="edgeStyle=orthogonalEdgeStyle;rounded=0;orthogonalLoop=1;jettySize=auto;html=1;" edge="1" parent="1" source="bhBdgrQU760FclHtjU-p-1" target="bhBdgrQU760FclHtjU-p-8">
          <mxGeometry relative="1" as="geometry" />
        </mxCell>
        <mxCell id="bhBdgrQU760FclHtjU-p-20" style="edgeStyle=orthogonalEdgeStyle;rounded=0;orthogonalLoop=1;jettySize=auto;html=1;" edge="1" parent="1" source="bhBdgrQU760FclHtjU-p-1" target="bhBdgrQU760FclHtjU-p-2">
          <mxGeometry relative="1" as="geometry" />
        </mxCell>
        <mxCell id="bhBdgrQU760FclHtjU-p-1" value="&lt;b&gt;Feasibility Study&lt;/b&gt;" style="rounded=1;whiteSpace=wrap;html=1;arcSize=16;shadow=1;perimeterSpacing=1;strokeColor=default;" vertex="1" parent="1">
          <mxGeometry x="160" y="180" width="120" height="60" as="geometry" />
        </mxCell>
        <mxCell id="bhBdgrQU760FclHtjU-p-15" style="edgeStyle=orthogonalEdgeStyle;rounded=0;orthogonalLoop=1;jettySize=auto;html=1;" edge="1" parent="1" source="bhBdgrQU760FclHtjU-p-2" target="bhBdgrQU760FclHtjU-p-7">
          <mxGeometry relative="1" as="geometry" />
        </mxCell>
        <mxCell id="bhBdgrQU760FclHtjU-p-17" style="edgeStyle=orthogonalEdgeStyle;rounded=0;orthogonalLoop=1;jettySize=auto;html=1;" edge="1" parent="1" source="bhBdgrQU760FclHtjU-p-2" target="bhBdgrQU760FclHtjU-p-3">
          <mxGeometry relative="1" as="geometry">
            <Array as="points">
              <mxPoint x="380" y="250" />
            </Array>
          </mxGeometry>
        </mxCell>
        <mxCell id="bhBdgrQU760FclHtjU-p-2" value="&lt;b&gt;Requirements Elicitation and Analysis&lt;/b&gt;" style="rounded=1;whiteSpace=wrap;html=1;arcSize=16;shadow=1;perimeterSpacing=1;strokeColor=default;" vertex="1" parent="1">
          <mxGeometry x="300" y="180" width="120" height="60" as="geometry" />
        </mxCell>
        <mxCell id="bhBdgrQU760FclHtjU-p-11" style="edgeStyle=orthogonalEdgeStyle;rounded=0;orthogonalLoop=1;jettySize=auto;html=1;" edge="1" parent="1" source="bhBdgrQU760FclHtjU-p-3" target="bhBdgrQU760FclHtjU-p-4">
          <mxGeometry relative="1" as="geometry">
            <Array as="points">
              <mxPoint x="510" y="290" />
            </Array>
          </mxGeometry>
        </mxCell>
        <mxCell id="bhBdgrQU760FclHtjU-p-12" style="edgeStyle=orthogonalEdgeStyle;rounded=0;orthogonalLoop=1;jettySize=auto;html=1;" edge="1" parent="1" source="bhBdgrQU760FclHtjU-p-3" target="bhBdgrQU760FclHtjU-p-6">
          <mxGeometry relative="1" as="geometry">
            <Array as="points">
              <mxPoint x="490" y="280" />
              <mxPoint x="490" y="280" />
            </Array>
          </mxGeometry>
        </mxCell>
        <mxCell id="bhBdgrQU760FclHtjU-p-18" style="edgeStyle=orthogonalEdgeStyle;rounded=0;orthogonalLoop=1;jettySize=auto;html=1;" edge="1" parent="1" source="bhBdgrQU760FclHtjU-p-3" target="bhBdgrQU760FclHtjU-p-2">
          <mxGeometry relative="1" as="geometry">
            <Array as="points">
              <mxPoint x="500" y="190" />
            </Array>
          </mxGeometry>
        </mxCell>
        <mxCell id="bhBdgrQU760FclHtjU-p-3" value="&lt;b&gt;Requirements Specification&lt;/b&gt;" style="rounded=1;whiteSpace=wrap;html=1;arcSize=16;shadow=1;perimeterSpacing=1;strokeColor=default;" vertex="1" parent="1">
          <mxGeometry x="440" y="200" width="120" height="60" as="geometry" />
        </mxCell>
        <mxCell id="bhBdgrQU760FclHtjU-p-9" style="edgeStyle=orthogonalEdgeStyle;rounded=0;orthogonalLoop=1;jettySize=auto;html=1;" edge="1" parent="1" source="bhBdgrQU760FclHtjU-p-4" target="bhBdgrQU760FclHtjU-p-5">
          <mxGeometry relative="1" as="geometry" />
        </mxCell>
        <mxCell id="bhBdgrQU760FclHtjU-p-10" style="edgeStyle=orthogonalEdgeStyle;rounded=0;orthogonalLoop=1;jettySize=auto;html=1;exitX=0.5;exitY=0;exitDx=0;exitDy=0;" edge="1" parent="1" source="bhBdgrQU760FclHtjU-p-4" target="bhBdgrQU760FclHtjU-p-3">
          <mxGeometry relative="1" as="geometry">
            <mxPoint x="610" y="220" as="targetPoint" />
            <Array as="points">
              <mxPoint x="640" y="230" />
            </Array>
          </mxGeometry>
        </mxCell>
        <mxCell id="bhBdgrQU760FclHtjU-p-4" value="&lt;b&gt;Requirements Validation&lt;/b&gt;" style="rounded=1;whiteSpace=wrap;html=1;arcSize=16;shadow=1;perimeterSpacing=1;strokeColor=default;" vertex="1" parent="1">
          <mxGeometry x="580" y="260" width="120" height="60" as="geometry" />
        </mxCell>
        <mxCell id="bhBdgrQU760FclHtjU-p-5" value="&lt;b&gt;Requirements Document&lt;/b&gt;" style="rounded=0;whiteSpace=wrap;html=1;arcSize=16;shadow=1;" vertex="1" parent="1">
          <mxGeometry x="580" y="370" width="120" height="60" as="geometry" />
        </mxCell>
        <mxCell id="bhBdgrQU760FclHtjU-p-13" style="edgeStyle=orthogonalEdgeStyle;rounded=0;orthogonalLoop=1;jettySize=auto;html=1;" edge="1" parent="1" source="bhBdgrQU760FclHtjU-p-6" target="bhBdgrQU760FclHtjU-p-5">
          <mxGeometry relative="1" as="geometry">
            <Array as="points">
              <mxPoint x="500" y="390" />
            </Array>
          </mxGeometry>
        </mxCell>
        <mxCell id="bhBdgrQU760FclHtjU-p-6" value="&lt;b&gt;User and System Requirements&lt;/b&gt;" style="rounded=0;whiteSpace=wrap;html=1;arcSize=16;shadow=1;" vertex="1" parent="1">
          <mxGeometry x="440" y="320" width="120" height="60" as="geometry" />
        </mxCell>
        <mxCell id="bhBdgrQU760FclHtjU-p-14" style="edgeStyle=orthogonalEdgeStyle;rounded=0;orthogonalLoop=1;jettySize=auto;html=1;" edge="1" parent="1" source="bhBdgrQU760FclHtjU-p-7" target="bhBdgrQU760FclHtjU-p-5">
          <mxGeometry relative="1" as="geometry">
            <Array as="points">
              <mxPoint x="360" y="410" />
            </Array>
          </mxGeometry>
        </mxCell>
        <mxCell id="bhBdgrQU760FclHtjU-p-7" value="&lt;b&gt;System Models&lt;/b&gt;" style="rounded=0;whiteSpace=wrap;html=1;arcSize=16;shadow=1;" vertex="1" parent="1">
          <mxGeometry x="300" y="300" width="120" height="60" as="geometry" />
        </mxCell>
        <mxCell id="bhBdgrQU760FclHtjU-p-8" value="&lt;b&gt;Feasibility Report&lt;/b&gt;" style="rounded=0;whiteSpace=wrap;html=1;arcSize=16;shadow=1;" vertex="1" parent="1">
          <mxGeometry x="160" y="300" width="120" height="60" as="geometry" />
        </mxCell>
        <mxCell id="bhBdgrQU760FclHtjU-p-22" style="edgeStyle=orthogonalEdgeStyle;rounded=0;orthogonalLoop=1;jettySize=auto;html=1;" edge="1" parent="1" source="bhBdgrQU760FclHtjU-p-21" target="bhBdgrQU760FclHtjU-p-1">
          <mxGeometry relative="1" as="geometry">
            <Array as="points">
              <mxPoint x="220" y="170" />
              <mxPoint x="220" y="170" />
            </Array>
          </mxGeometry>
        </mxCell>
        <mxCell id="bhBdgrQU760FclHtjU-p-21" value="" style="ellipse;whiteSpace=wrap;html=1;rounded=0;shadow=1;strokeColor=default;fillColor=#000000;" vertex="1" parent="1">
          <mxGeometry x="210" y="140" width="20" height="20" as="geometry" />
        </mxCell>
        <mxCell id="bhBdgrQU760FclHtjU-p-48" value="" style="group" vertex="1" connectable="0" parent="1">
          <mxGeometry x="160" y="520" width="400" height="100" as="geometry" />
        </mxCell>
        <mxCell id="bhBdgrQU760FclHtjU-p-44" value="" style="rounded=0;whiteSpace=wrap;html=1;shadow=1;strokeColor=default;fillColor=#FFFFFF;" vertex="1" parent="bhBdgrQU760FclHtjU-p-48">
          <mxGeometry width="400" height="100" as="geometry" />
        </mxCell>
        <mxCell id="bhBdgrQU760FclHtjU-p-45" value="Platform Information" style="rounded=0;whiteSpace=wrap;html=1;shadow=1;strokeColor=default;fillColor=#FFFFFF;fontStyle=1" vertex="1" parent="bhBdgrQU760FclHtjU-p-48">
          <mxGeometry x="20" y="20" width="100" height="60" as="geometry" />
        </mxCell>
        <mxCell id="bhBdgrQU760FclHtjU-p-46" value="Requirements Specification" style="rounded=0;whiteSpace=wrap;html=1;shadow=1;strokeColor=default;fillColor=#FFFFFF;fontStyle=1" vertex="1" parent="bhBdgrQU760FclHtjU-p-48">
          <mxGeometry x="150" y="20" width="100" height="60" as="geometry" />
        </mxCell>
        <mxCell id="bhBdgrQU760FclHtjU-p-47" value="Data &lt;br&gt;Description" style="rounded=0;whiteSpace=wrap;html=1;shadow=1;strokeColor=default;fillColor=#FFFFFF;fontStyle=1" vertex="1" parent="bhBdgrQU760FclHtjU-p-48">
          <mxGeometry x="280" y="20" width="100" height="60" as="geometry" />
        </mxCell>
        <mxCell id="bhBdgrQU760FclHtjU-p-49" value="" style="group" vertex="1" connectable="0" parent="1">
          <mxGeometry x="160" y="650" width="400" height="140" as="geometry" />
        </mxCell>
        <mxCell id="bhBdgrQU760FclHtjU-p-50" value="" style="rounded=0;whiteSpace=wrap;html=1;shadow=1;strokeColor=default;fillColor=#FFFFFF;" vertex="1" parent="bhBdgrQU760FclHtjU-p-49">
          <mxGeometry width="400" height="140" as="geometry" />
        </mxCell>
        <mxCell id="bhBdgrQU760FclHtjU-p-62" style="edgeStyle=orthogonalEdgeStyle;rounded=0;orthogonalLoop=1;jettySize=auto;html=1;" edge="1" parent="bhBdgrQU760FclHtjU-p-49" source="bhBdgrQU760FclHtjU-p-51" target="bhBdgrQU760FclHtjU-p-52">
          <mxGeometry relative="1" as="geometry" />
        </mxCell>
        <mxCell id="bhBdgrQU760FclHtjU-p-51" value="Architectural Design" style="rounded=0;whiteSpace=wrap;html=1;shadow=1;strokeColor=default;fillColor=#FFFFFF;fontStyle=1" vertex="1" parent="bhBdgrQU760FclHtjU-p-49">
          <mxGeometry x="20" y="20" width="100" height="40" as="geometry" />
        </mxCell>
        <mxCell id="bhBdgrQU760FclHtjU-p-63" style="edgeStyle=orthogonalEdgeStyle;rounded=0;orthogonalLoop=1;jettySize=auto;html=1;" edge="1" parent="bhBdgrQU760FclHtjU-p-49" source="bhBdgrQU760FclHtjU-p-52" target="bhBdgrQU760FclHtjU-p-53">
          <mxGeometry relative="1" as="geometry" />
        </mxCell>
        <mxCell id="bhBdgrQU760FclHtjU-p-52" value="Interface Design" style="rounded=0;whiteSpace=wrap;html=1;shadow=1;strokeColor=default;fillColor=#FFFFFF;fontStyle=1" vertex="1" parent="bhBdgrQU760FclHtjU-p-49">
          <mxGeometry x="150" y="20" width="100" height="40" as="geometry" />
        </mxCell>
        <mxCell id="bhBdgrQU760FclHtjU-p-53" value="Component Design" style="rounded=0;whiteSpace=wrap;html=1;shadow=1;strokeColor=default;fillColor=#FFFFFF;fontStyle=1" vertex="1" parent="bhBdgrQU760FclHtjU-p-49">
          <mxGeometry x="280" y="20" width="100" height="40" as="geometry" />
        </mxCell>
        <mxCell id="bhBdgrQU760FclHtjU-p-59" value="Database Design" style="rounded=1;whiteSpace=wrap;html=1;shadow=1;strokeColor=default;fillColor=#FFFFFF;fontStyle=1;arcSize=45;" vertex="1" parent="bhBdgrQU760FclHtjU-p-49">
          <mxGeometry x="100" y="80" width="200" height="40" as="geometry" />
        </mxCell>
        <mxCell id="bhBdgrQU760FclHtjU-p-60" value="" style="endArrow=classic;html=1;rounded=0;entryX=0.124;entryY=0.011;entryDx=0;entryDy=0;entryPerimeter=0;" edge="1" parent="bhBdgrQU760FclHtjU-p-49" source="bhBdgrQU760FclHtjU-p-51" target="bhBdgrQU760FclHtjU-p-59">
          <mxGeometry width="50" height="50" relative="1" as="geometry">
            <mxPoint x="70" y="160" as="sourcePoint" />
            <mxPoint x="120" y="110" as="targetPoint" />
          </mxGeometry>
        </mxCell>
        <mxCell id="bhBdgrQU760FclHtjU-p-61" value="" style="endArrow=classic;html=1;rounded=0;entryX=0.849;entryY=0.039;entryDx=0;entryDy=0;entryPerimeter=0;" edge="1" parent="bhBdgrQU760FclHtjU-p-49" source="bhBdgrQU760FclHtjU-p-53" target="bhBdgrQU760FclHtjU-p-59">
          <mxGeometry width="50" height="50" relative="1" as="geometry">
            <mxPoint x="107.10187932739859" y="70" as="sourcePoint" />
            <mxPoint x="134.79999999999995" y="90.44000000000005" as="targetPoint" />
          </mxGeometry>
        </mxCell>
        <mxCell id="bhBdgrQU760FclHtjU-p-54" value="" style="group" vertex="1" connectable="0" parent="1">
          <mxGeometry x="160" y="820" width="410" height="100" as="geometry" />
        </mxCell>
        <mxCell id="bhBdgrQU760FclHtjU-p-55" value="" style="rounded=0;whiteSpace=wrap;html=1;shadow=1;strokeColor=default;fillColor=#FFFFFF;" vertex="1" parent="bhBdgrQU760FclHtjU-p-54">
          <mxGeometry width="400" height="80" as="geometry" />
        </mxCell>
        <mxCell id="bhBdgrQU760FclHtjU-p-57" value="Database Specification" style="rounded=0;whiteSpace=wrap;html=1;shadow=1;strokeColor=default;fillColor=#FFFFFF;fontStyle=1;imageHeight=24;" vertex="1" parent="bhBdgrQU760FclHtjU-p-54">
          <mxGeometry x="110.00358974358976" y="20" width="80.76923076923077" height="40" as="geometry" />
        </mxCell>
        <mxCell id="bhBdgrQU760FclHtjU-p-56" value="System Architecture" style="rounded=0;whiteSpace=wrap;html=1;shadow=1;strokeColor=default;fillColor=#FFFFFF;fontStyle=1;imageHeight=24;" vertex="1" parent="bhBdgrQU760FclHtjU-p-54">
          <mxGeometry x="10" y="20" width="80.76923076923077" height="40" as="geometry" />
        </mxCell>
        <mxCell id="bhBdgrQU760FclHtjU-p-71" value="Interface Specification" style="rounded=0;whiteSpace=wrap;html=1;shadow=1;strokeColor=default;fillColor=#FFFFFF;fontStyle=1;imageHeight=24;" vertex="1" parent="bhBdgrQU760FclHtjU-p-54">
          <mxGeometry x="209.9971794871795" y="20" width="80.76923076923077" height="40" as="geometry" />
        </mxCell>
        <mxCell id="bhBdgrQU760FclHtjU-p-73" value="" style="group" vertex="1" connectable="0" parent="bhBdgrQU760FclHtjU-p-54">
          <mxGeometry x="40" y="20" width="350" height="40" as="geometry" />
        </mxCell>
        <mxCell id="bhBdgrQU760FclHtjU-p-72" value="Component Specification" style="rounded=0;whiteSpace=wrap;html=1;shadow=1;strokeColor=default;fillColor=#FFFFFF;fontStyle=1;imageHeight=24;" vertex="1" parent="bhBdgrQU760FclHtjU-p-73">
          <mxGeometry x="269.2307692307692" width="80.76923076923077" height="40" as="geometry" />
        </mxCell>
        <mxCell id="bhBdgrQU760FclHtjU-p-65" style="edgeStyle=orthogonalEdgeStyle;rounded=0;orthogonalLoop=1;jettySize=auto;html=1;entryX=0.5;entryY=0;entryDx=0;entryDy=0;" edge="1" parent="1" source="bhBdgrQU760FclHtjU-p-44" target="bhBdgrQU760FclHtjU-p-50">
          <mxGeometry relative="1" as="geometry" />
        </mxCell>
        <mxCell id="bhBdgrQU760FclHtjU-p-66" style="edgeStyle=orthogonalEdgeStyle;rounded=0;orthogonalLoop=1;jettySize=auto;html=1;" edge="1" parent="1" source="bhBdgrQU760FclHtjU-p-50" target="bhBdgrQU760FclHtjU-p-55">
          <mxGeometry relative="1" as="geometry" />
        </mxCell>
        <mxCell id="bhBdgrQU760FclHtjU-p-77" value="&lt;b style=&quot;font-size: 12px;&quot;&gt;Proses Desain&lt;/b&gt;" style="rounded=0;whiteSpace=wrap;html=1;shadow=0;fontFamily=Helvetica;fontSize=12;strokeColor=none;fillColor=none;align=left;" vertex="1" parent="1">
          <mxGeometry x="160" y="630" width="120" height="20" as="geometry" />
        </mxCell>
        <mxCell id="bhBdgrQU760FclHtjU-p-78" value="&lt;b style=&quot;font-size: 12px;&quot;&gt;Masukan&lt;/b&gt;" style="rounded=0;whiteSpace=wrap;html=1;shadow=0;fontFamily=Helvetica;fontSize=12;strokeColor=none;fillColor=none;align=left;" vertex="1" parent="1">
          <mxGeometry x="160" y="500" width="120" height="20" as="geometry" />
        </mxCell>
        <mxCell id="bhBdgrQU760FclHtjU-p-76" value="&lt;b style=&quot;font-size: 12px;&quot;&gt;Keluaran&lt;/b&gt;" style="rounded=0;whiteSpace=wrap;html=1;shadow=0;fontFamily=Helvetica;fontSize=12;strokeColor=none;fillColor=none;align=left;" vertex="1" parent="1">
          <mxGeometry x="160" y="800" width="120" height="20" as="geometry" />
        </mxCell>
      </root>
    </mxGraphModel>
  </diagram>
</mxfile>
